<?xml version="1.0" encoding="iso-8859-1"?>
<!-- Generator: Adobe Illustrator 19.0.0, SVG Export Plug-In . SVG Version: 6.00 Build 0)  -->
<svg version="1.1" id="Layer_1" xmlns="http://www.w3.org/2000/svg" xmlns:xlink="http://www.w3.org/1999/xlink" x="0px" y="0px"
	 viewBox="0 0 512 512" style="enable-background:new 0 0 512 512;" xml:space="preserve">
<g>
	<path style="fill:#BEC8DC;" d="M185.379,308.966H52.966c-9.737,0-17.655-7.923-17.655-17.655V220.69
		c0-9.732,7.918-17.655,17.655-17.655h132.414c9.737,0,17.655,7.923,17.655,17.655v17.655h35.31V220.69
		c0-29.207-23.758-52.966-52.966-52.966H52.966C23.758,167.724,0,191.482,0,220.69v70.621c0,29.207,23.758,52.966,52.966,52.966
		h132.414c29.207,0,52.966-23.758,52.966-52.966h-35.31C203.034,301.043,195.116,308.966,185.379,308.966z"/>
	<path style="fill:#BEC8DC;" d="M459.034,167.724H326.621c-29.207,0-52.966,23.758-52.966,52.966v17.655h35.31V220.69
		c0-9.732,7.918-17.655,17.655-17.655h132.414c9.737,0,17.655,7.923,17.655,17.655v70.621c0,9.732-7.918,17.655-17.655,17.655
		H326.621c-9.737,0-17.655-7.923-17.655-17.655h-35.31c0,29.207,23.758,52.966,52.966,52.966h132.414
		c29.207,0,52.966-23.758,52.966-52.966V220.69C512,191.482,488.242,167.724,459.034,167.724z"/>
</g>
<path style="fill:#AAB4CB;" d="M361.931,273.655c9.75,0,17.655-7.905,17.655-17.655s-7.905-17.655-17.655-17.655h-52.966h-35.31
	h-35.31h-35.31h-52.966c-9.75,0-17.655,7.905-17.655,17.655s7.905,17.655,17.655,17.655h52.966h35.31h35.31h35.31H361.931z"/>
<g>
	<rect x="203.034" y="273.655" style="fill:#96A1BA;" width="35.31" height="17.655"/>
	<rect x="273.655" y="273.655" style="fill:#96A1BA;" width="35.31" height="17.655"/>
</g>
<g>
</g>
<g>
</g>
<g>
</g>
<g>
</g>
<g>
</g>
<g>
</g>
<g>
</g>
<g>
</g>
<g>
</g>
<g>
</g>
<g>
</g>
<g>
</g>
<g>
</g>
<g>
</g>
<g>
</g>
</svg>
