<?xml version="1.0" encoding="iso-8859-1"?>
<!-- Generator: Adobe Illustrator 19.0.0, SVG Export Plug-In . SVG Version: 6.00 Build 0)  -->
<svg version="1.1" id="Capa_1" xmlns="http://www.w3.org/2000/svg" xmlns:xlink="http://www.w3.org/1999/xlink" x="0px" y="0px"
	 viewBox="0 0 512 512" style="enable-background:new 0 0 512 512;" xml:space="preserve">
<g>
	<g>
		<path d="M462.8,247.776C417.736,175.28,340.424,132,256,132S94.264,175.28,49.2,247.768c-1.6,2.592-1.6,5.872,0,8.456
			C94.264,328.72,171.576,372,256,372s161.736-43.28,206.8-115.768C464.4,253.64,464.4,250.36,462.8,247.776z M256,356
			c-77.2,0-148.048-38.784-190.512-104C107.944,186.784,178.8,148,256,148s148.048,38.784,190.512,104
			C404.056,317.216,333.2,356,256,356z"/>
	</g>
</g>
<g>
	<g>
		<path d="M256,164c-48.52,0-88,39.48-88,88c0,48.52,39.48,88,88,88s88-39.48,88-88S304.52,164,256,164z M256,324
			c-39.704,0-72-32.296-72-72s32.296-72,72-72c39.704,0,72,32.296,72,72C328,291.704,295.704,324,256,324z"/>
	</g>
</g>
<g>
	<g>
		<path d="M256,220c-17.648,0-32,14.352-32,32s14.352,32,32,32s32-14.352,32-32S273.648,220,256,220z M256,268
			c-8.824,0-16-7.176-16-16c0-8.824,7.176-16,16-16c8.824,0,16,7.176,16,16C272,260.824,264.824,268,256,268z"/>
	</g>
</g>
<g>
	<g>
		<path d="M504,108H392c-4.424,0-8,3.576-8,8s3.576,8,8,8h112c4.424,0,8-3.576,8-8S508.424,108,504,108z"/>
	</g>
</g>
<g>
	<g>
		<path d="M424,76h-32c-4.424,0-8,3.576-8,8s3.576,8,8,8h32c4.424,0,8-3.576,8-8S428.424,76,424,76z"/>
	</g>
</g>
<g>
	<g>
		<path d="M504,44h-24c-4.424,0-8,3.576-8,8s3.576,8,8,8h24c4.424,0,8-3.576,8-8S508.424,44,504,44z"/>
	</g>
</g>
<g>
	<g>
		<path d="M504,76h-48c-4.424,0-8,3.576-8,8s3.576,8,8,8h48c4.424,0,8-3.576,8-8S508.424,76,504,76z"/>
	</g>
</g>
<g>
	<g>
		<path d="M424,12h-32c-4.424,0-8,3.576-8,8s3.576,8,8,8h32c4.424,0,8-3.576,8-8S428.424,12,424,12z"/>
	</g>
</g>
<g>
	<g>
		<path d="M504,12h-48c-4.424,0-8,3.576-8,8s3.576,8,8,8h48c4.424,0,8-3.576,8-8S508.424,12,504,12z"/>
	</g>
</g>
<g>
	<g>
		<path d="M448,44h-56c-4.424,0-8,3.576-8,8s3.576,8,8,8h56c4.424,0,8-3.576,8-8S452.424,44,448,44z"/>
	</g>
</g>
<g>
	<g>
		<path d="M336,244h-56c-4.424,0-8,3.576-8,8s3.576,8,8,8h56c4.424,0,8-3.576,8-8S340.424,244,336,244z"/>
	</g>
</g>
<g>
	<g>
		<path d="M256,308c-4.424,0-8,3.576-8,8v16c0,4.424,3.576,8,8,8s8-3.576,8-8v-16C264,311.576,260.424,308,256,308z"/>
	</g>
</g>
<g>
	<g>
		<path d="M256,164c-4.424,0-8,3.576-8,8v16c0,4.424,3.576,8,8,8s8-3.576,8-8v-16C264,167.576,260.424,164,256,164z"/>
	</g>
</g>
<g>
	<g>
		<path d="M318.224,302.912l-11.32-11.32c-3.128-3.128-8.184-3.128-11.312,0c-3.128,3.128-3.128,8.184,0,11.312l11.32,11.32
			c1.56,1.56,3.608,2.344,5.656,2.344c2.048,0,4.096-0.776,5.656-2.344C321.352,311.096,321.352,306.04,318.224,302.912z"/>
	</g>
</g>
<g>
	<g>
		<path d="M216.408,201.096l-11.312-11.312c-3.128-3.128-8.184-3.128-11.312,0s-3.128,8.184,0,11.312l11.312,11.312
			c1.56,1.56,3.608,2.344,5.656,2.344c2.048,0,4.088-0.784,5.656-2.344C219.536,209.28,219.536,204.224,216.408,201.096z"/>
	</g>
</g>
<g>
	<g>
		<path d="M232,244h-55.992c-4.424,0-8,3.576-8,8s3.576,8,8,8H232c4.424,0,8-3.576,8-8S236.424,244,232,244z"/>
	</g>
</g>
<g>
	<g>
		<path d="M397.656,110.352c-3.128-3.128-8.184-3.128-11.312,0L295.6,201.096c-3.128,3.128-3.128,8.184,0,11.312
			c1.56,1.56,3.608,2.344,5.656,2.344c2.048,0,4.096-0.784,5.656-2.344l90.744-90.744
			C400.784,118.536,400.784,113.48,397.656,110.352z"/>
	</g>
</g>
<g>
	<g>
		<path d="M216.408,291.584c-3.128-3.128-8.184-3.128-11.312,0l-90.768,90.76c-3.128,3.128-3.128,8.184,0,11.312
			c1.56,1.56,3.608,2.344,5.656,2.344s4.096-0.784,5.656-2.344l90.768-90.76C219.536,299.768,219.536,294.712,216.408,291.584z"/>
	</g>
</g>
<g>
	<g>
		<path d="M119.984,380H8c-4.424,0-8,3.576-8,8s3.576,8,8,8h111.984c4.424,0,8-3.576,8-8S124.408,380,119.984,380z"/>
	</g>
</g>
<g>
	<g>
		<path d="M120,412H8c-4.424,0-8,3.576-8,8v72c0,4.424,3.576,8,8,8h112c4.424,0,8-3.576,8-8v-72C128,415.576,124.424,412,120,412z
			 M112,484H16v-56h96V484z"/>
	</g>
</g>
<g>
	<g>
		<path d="M96,460H32c-4.424,0-8,3.576-8,8s3.576,8,8,8h64c4.424,0,8-3.576,8-8S100.424,460,96,460z"/>
	</g>
</g>
<g>
	<g>
		<path d="M32,460c-4.424,0-8,3.576-8,8v24c0,4.424,3.576,8,8,8s8-3.576,8-8v-24C40,463.576,36.424,460,32,460z"/>
	</g>
</g>
<g>
	<g>
		<path d="M96,460c-4.424,0-8,3.576-8,8v24c0,4.424,3.576,8,8,8s8-3.576,8-8v-24C104,463.576,100.424,460,96,460z"/>
	</g>
</g>
<g>
	<g>
		<path d="M168,20H96c-4.424,0-8,3.576-8,8v72c0,4.424,3.576,8,8,8h72c4.424,0,8-3.576,8-8V28C176,23.576,172.424,20,168,20z
			 M160,92h-56V36h56V92z"/>
	</g>
</g>
<g>
	<g>
		<path d="M72,124H40c-4.424,0-8,3.576-8,8v32c0,4.424,3.576,8,8,8h32c4.424,0,8-3.576,8-8v-32C80,127.576,76.424,124,72,124z
			 M64,156H48v-16h16V156z"/>
	</g>
</g>
<g>
	<g>
		<path d="M248,52h-24c-4.424,0-8,3.576-8,8v24c0,4.424,3.576,8,8,8h24c4.424,0,8-3.576,8-8V60C256,55.576,252.424,52,248,52z
			 M240,76h-8v-8h8V76z"/>
	</g>
</g>
<g>
	<g>
		<path d="M416,396h-72c-4.424,0-8,3.576-8,8v72c0,4.424,3.576,8,8,8h72c4.424,0,8-3.576,8-8v-72C424,399.576,420.424,396,416,396z
			 M408,468h-56v-56h56V468z"/>
	</g>
</g>
<g>
	<g>
		<path d="M472,332h-32c-4.424,0-8,3.576-8,8v32c0,4.424,3.576,8,8,8h32c4.424,0,8-3.576,8-8v-32C480,335.576,476.424,332,472,332z
			 M464,364h-16v-16h16V364z"/>
	</g>
</g>
<g>
	<g>
		<path d="M288,412h-24c-4.424,0-8,3.576-8,8v24c0,4.424,3.576,8,8,8h24c4.424,0,8-3.576,8-8v-24C296,415.576,292.424,412,288,412z
			 M280,436h-8v-8h8V436z"/>
	</g>
</g>
<g>
</g>
<g>
</g>
<g>
</g>
<g>
</g>
<g>
</g>
<g>
</g>
<g>
</g>
<g>
</g>
<g>
</g>
<g>
</g>
<g>
</g>
<g>
</g>
<g>
</g>
<g>
</g>
<g>
</g>
</svg>
