<svg height="511pt" viewBox="0 -74 511.99648 511" width="511pt" xmlns="http://www.w3.org/2000/svg"><path d="m510.945312 141.097656c.007813-.015625.015626-.027344.023438-.039062.074219-.148438.136719-.304688.199219-.457032.082031-.183593.15625-.375.226562-.5625.074219-.199218.144531-.398437.203125-.601562.035156-.121094.0625-.246094.09375-.371094.042969-.175781.085938-.347656.121094-.523437.023438-.125.042969-.246094.0625-.371094.027344-.183594.054688-.363281.070312-.542969.011719-.121094.023438-.238281.03125-.359375.011719-.191406.015626-.382812.019532-.574219 0-.109374 0-.21875 0-.328124-.007813-.21875-.023438-.433594-.042969-.652344-.003906-.082032-.007813-.164063-.019531-.246094-.03125-.296875-.078125-.59375-.140625-.882812-.011719-.066407-.03125-.128907-.046875-.195313-.050782-.226563-.105469-.449219-.171875-.671875-.035157-.113281-.074219-.222656-.113281-.335938-.058594-.171874-.117188-.339843-.183594-.507812-.050782-.121094-.101563-.242188-.15625-.367188-.070313-.152343-.140625-.304687-.21875-.457031-.0625-.121093-.125-.242187-.191406-.359375-.085938-.152344-.179688-.304687-.273438-.453125-.070312-.109375-.132812-.21875-.203125-.320312-.15625-.226563-.324219-.449219-.496094-.664063-.050781-.0625-.105469-.121094-.15625-.183594-.167969-.191406-.339843-.378906-.519531-.5625-.074219-.074218-.15625-.144531-.230469-.214843-.109375-.101563-.210937-.203125-.320312-.300781-10.734375-9.261719-21.6875-19.101563-32.28125-28.617188-35.472657-31.867188-72.152344-64.820312-108.910157-83.578125-41.15625-21.003906-77.644531-21.710937-111.332031-2.105469-34.589843-20.136718-72.214843-18.832031-114.8125 3.917969-4.90625 2.621094-6.757812 8.722656-4.140625 13.625 2.621094 4.90625 8.722656 6.757813 13.628906 4.140625 38.308594-20.460938 70.023438-20.914062 99.808594-1.421875 3.347656 2.1875 7.675782 2.191406 11.027344 0 64.6875-42.300781 131.03125 17.300781 201.269531 80.402344 1.707031 1.535156 3.421875 3.074219 5.144531 4.621093-40.289062-6.914062-81.300781-11.761718-122.726562-14.535156-.46875-.066406-.949219-.113281-1.4375-.113281-.042969 0-.078125.003906-.117188.003906-25.945312-1.703125-52.046874-2.597656-78.238281-2.65625-.976562-.003906-1.941406-.003906-2.917969-.003906-2.074218 0-4.160156.023437-6.238281.03125-.105469 0-.207031-.015625-.308593-.015625-.003907 0-.003907 0-.007813 0-.125 0-.25.015625-.375.019531-28.882813.160157-58.171875 1.296875-87.78125 3.4375-.246094.011719-.492187.027344-.738281.058594-40.742188 2.964844-82.074219 7.792969-123.726563 14.46875 2.011719-1.800781 4.011719-3.601563 6-5.386719 10.417969-9.355468 21.1875-19.03125 31.738281-28.15625 4.207032-3.636718 4.667969-9.996094 1.03125-14.203125-3.636718-4.207031-10-4.667969-14.207031-1.027343-10.695312 9.246093-21.535156 18.984374-32.019531 28.40625-10.621094 9.539062-21.601562 19.402343-32.359375 28.6875-.019531.019531-.035156.039062-.054687.054687-.019532.015625-.035157.027344-.054688.042969-.054688.046875-.101562.101562-.152344.152344-.164062.152343-.324218.308593-.476562.46875-.082032.085937-.160156.175781-.238282.261718-.128906.148438-.25.296875-.371093.449219-.078125.097656-.152344.195313-.226563.296875-.109375.15625-.214844.3125-.316406.472656-.066406.101563-.132812.199219-.191406.300782-.132813.226562-.257813.457031-.371094.6875-.054688.113281-.101562.226562-.15625.339843-.082031.1875-.164062.378907-.234375.570313-.042969.117187-.082031.234375-.121094.347656-.054687.171875-.109375.34375-.15625.519531-.035156.117188-.0625.234375-.089843.355469-.042969.183594-.082032.363281-.113282.546875-.019531.113281-.039062.222656-.054687.332031-.0312502.210938-.0507815.425782-.0664065.636719-.0078125.085937-.0195313.167969-.0234375.253906-.015625.300781-.01953125.601563-.0078125.90625v.023438c.0117187.289062.0351563.578125.0742187.867187.0117188.101563.0312498.203125.0468748.304688.03125.191406.0625.382812.105469.574218.027344.128907.058594.253907.09375.378907.042969.164062.085937.324219.136719.484375.042968.136718.089844.273437.136718.414062.054688.144532.113282.292969.175782.4375.054687.136719.113281.277344.175781.414063.015625.027343.023437.054687.035156.082031.066407.136719.140625.265625.210938.398438.0625.109374.113281.21875.175781.328124.15625.265626.324219.519532.5.765626.039062.058593.089844.117187.132812.175781.148438.199219.300782.390625.464844.578125.023438.027344.046875.058594.070313.089844 52.25 58.75 104.582031 100.582031 155.644531 124.453124.117188 29.679688 10.765625 54.71875 30.820312 72.425782 17.753907 15.683594 41.546876 24.316406 66.988282 24.316406 25.445312 0 49.238281-8.632812 66.996094-24.3125 18.917968-16.703125 29.46875-39.929688 30.703124-67.421875 52.867188-22.929687 105.347657-66.574219 156.09375-129.847656.113282-.144531.207032-.292969.3125-.4375.0625-.089844.132813-.175781.191407-.265625.246093-.363282.464843-.734375.652343-1.117188zm-481.132812 2.242188c43.226562-7.425782 86.039062-12.8125 128.367188-16.175782v118.203126c-41.949219-21.292969-85.015626-55.527344-128.367188-102.027344zm226.183594 201.019531c-37.410156 0-77.675782-24.121094-77.675782-77.089844v-5.804687c0-.023438 0-.046875 0-.070313v-135.675781c22.660157-1.460938 45.179688-2.351562 67.542969-2.640625l.050781 78.246094c0 5.558593 4.511719 10.0625 10.070313 10.0625h.003906c5.5625-.003907 10.070313-4.511719 10.066407-10.074219l-.050782-78.324219c22.726563.0625 45.289063.742188 67.671875 2.027344v140.816406.066407 1.371093c0 52.96875-40.265625 77.089844-77.679687 77.089844zm97.820312-93.773437v-124.257813c43.945313 3.261719 87.179688 8.910156 129.613282 16.925781-42.636719 50.554688-86.125 86.570313-129.613282 107.332032zm0 0"/><path d="m108.660156 61.761719c1.523438 0 3.074219-.347657 4.527344-1.082031l.171875-.085938c4.964844-2.503906 6.960937-8.558594 4.457031-13.523438-2.503906-4.96875-8.5625-6.960937-13.527344-4.457031l-.171874.085938c-4.964844 2.503906-6.960938 8.558593-4.457032 13.523437 1.773438 3.515625 5.320313 5.539063 9 5.539063zm0 0"/></svg>