<svg height="480pt" viewBox="0 -16 480.00198 480" width="480pt" xmlns="http://www.w3.org/2000/svg"><path d="m162.457031 241.117188c9.804688 3.125 20.515625-.191407 26.839844-8.3125l37.664063 12-23.199219 31.265624c-9.847657-2.972656-20.5.507813-26.691407 8.71875-3.824218 5.15625-5.410156 11.636719-4.394531 17.976563s4.550781 12.003906 9.796875 15.703125c10.878906 7.695312 25.90625 5.355469 33.925782-5.285156 6.152343-8.195313 6.296874-19.421875.363281-27.769532l23.238281-31.335937 23.199219 31.304687c-5.933594 8.34375-5.789063 19.570313.359375 27.757813 8.019531 10.640625 23.039062 12.984375 33.921875 5.296875 5.253906-3.699219 8.789062-9.359375 9.808593-15.703125 1.015626-6.34375-.570312-12.828125-4.402343-17.984375-6.191407-8.207031-16.84375-11.683594-26.6875-8.710938l-23.199219-31.273437 37.679688-12c6.320312 8.113281 17.023437 11.433594 26.824218 8.320313 6.195313-1.941407 11.347656-6.300782 14.289063-12.089844 2.902343-5.652344 3.40625-12.242188 1.390625-18.269532-4.320313-12.617187-17.9375-19.460937-30.640625-15.402343-6.195313 1.9375-11.351563 6.292969-14.296875 12.082031-1.582032 3.148438-2.441406 6.613281-2.511719 10.136719l-37.734375 12v-38.402344c11.234375-3.902344 18.007812-15.347656 16.027344-27.074219-1.980469-11.726562-12.136719-20.308594-24.027344-20.308594-11.894531 0-22.046875 8.582032-24.027344 20.308594-1.980468 11.726563 4.792969 23.171875 16.027344 27.074219v38.488281l-37.816406-12.046875c-.074219-3.519531-.933594-6.976562-2.511719-10.121093-2.941406-5.792969-8.09375-10.152344-14.296875-12.09375-12.703125-4.058594-26.320312 2.789062-30.640625 15.40625-2.015625 6.03125-1.515625 12.625 1.394531 18.28125 2.953125 5.789062 8.121094 10.136718 14.328125 12.0625zm41.117188 62.503906c-2.792969 3.691406-8.015625 4.488281-11.78125 1.800781-1.761719-1.230469-2.949219-3.121094-3.289063-5.238281-.332031-2.078125.195313-4.199219 1.457032-5.882813 1.601562-2.144531 4.128906-3.402343 6.808593-3.390625 1.628907.023438 3.222657.507813 4.589844 1.398438l.695313.519531c1.582031 1.210937 2.648437 2.96875 2.992187 4.929687.320313 2.070313-.210937 4.183594-1.472656 5.855469zm87.929687-3.457032c-.339844 2.121094-1.527344 4.011719-3.289062 5.242188-3.765625 2.6875-8.988282 1.890625-11.78125-1.800781-1.257813-1.679688-1.785156-3.792969-1.464844-5.863281.335938-1.949219 1.398438-3.699219 2.96875-4.90625l.75-.566407c1.363281-.871093 2.941406-1.347656 4.558594-1.367187 2.679687-.019532 5.203125 1.234375 6.808594 3.375 1.261718 1.6875 1.78125 3.8125 1.449218 5.886718zm11.039063-85.488281c1.015625-1.96875 2.78125-3.445312 4.898437-4.09375.851563-.273437 1.742188-.410156 2.636719-.410156 3.597656-.050781 6.820313 2.207031 8 5.601563.65625 1.972656.488281 4.121093-.460937 5.96875-1.011719 1.96875-2.769532 3.449218-4.882813 4.101562-4.054687 1.328125-8.457031-.617188-10.207031-4.511719l-.503906-1.597656c-.410157-1.695313-.226563-3.480469.519531-5.058594zm-62.503907-54.183593c4.433594-.03125 8.054688 3.535156 8.089844 7.96875.03125 4.433593-3.535156 8.054687-7.96875 8.089843h-.242187c-4.433594-.035156-8-3.65625-7.964844-8.089843.03125-4.433594 3.652344-8 8.085937-7.96875zm-78.078124 55.3125c1.179687-3.394532 4.40625-5.652344 8-5.597657.890624-.003906 1.78125.136719 2.632812.40625 2.117188.652344 3.882812 2.132813 4.894531 4.105469.761719 1.574219.957031 3.367188.558594 5.070312l-.503906 1.601563c-1.742188 3.890625-6.144531 5.839844-10.199219 4.511719-2.109375-.65625-3.867188-2.132813-4.878906-4.097656-.976563-1.847657-1.15625-4.011719-.503906-6zm0 0"/><path d="m.457031 185.054688c-.839843 2.378906-.5078122 5.015624.894531 7.109374 32.773438 47.03125 85.503907 76.199219 142.761719 78.960938-44.601562 35.171875-69.875 89.414062-68.113281 146.183594.125 2.488281 1.402344 4.773437 3.453125 6.183594 2.050781 1.410156 4.644531 1.789062 7.011719 1.015624l22.640625-7.335937-.128907 23.203125c-.011718 2.128906.824219 4.175781 2.324219 5.6875 1.503907 1.511719 3.546875 2.359375 5.675781 2.359375.699219 0 1.394532-.089844 2.070313-.273437 55.078125-15.355469 99.820313-55.558594 120.953125-108.6875 21.140625 53.105468 65.867188 93.289062 120.917969 108.648437 2.414062.648437 4.988281.132813 6.964843-1.394531 1.972657-1.523438 3.125-3.886719 3.109376-6.382813l-.128907-23.117187 22.640625 7.335937c2.367188.769531 4.957032.394531 7.007813-1.019531 2.050781-1.410156 3.328125-3.695312 3.457031-6.179688 1.769531-56.769531-23.492188-111.011718-68.082031-146.195312 57.253906-2.765625 109.984375-31.925781 142.761719-78.949219 1.402343-2.097656 1.738281-4.730469.898437-7.113281-.835937-2.378906-2.746094-4.222656-5.15625-4.976562l-22.488281-7.03125 13.898437-18.535157c1.511719-2.019531 1.980469-4.636719 1.269531-7.058593-.714843-2.417969-2.527343-4.363282-4.894531-5.238282-54.316406-19.238281-114.46875-12.390625-163.070312 18.566406 15.011719-54.796874 2.929687-113.472656-32.511719-157.878906-1.566406-1.917968-3.933594-2.9999998-6.40625-2.93749975-2.472656.06249995-4.78125 1.26953175-6.242188 3.26562475l-13.945312 19.007813-13.921875-19c-1.460937-2-3.769531-3.2070315-6.246094-3.27343775-2.46875-.04296875-4.824219 1.03906275-6.398437 2.93749975-35.4375 44.40625-47.515625 103.070313-32.503906 157.863282-48.605469-30.988282-108.777344-37.84375-163.105469-18.582032-2.367188.875-4.179688 2.816406-4.894531 5.238282-.710938 2.421874-.242188 5.035156 1.269531 7.058593l13.898437 18.527344-22.496094 7.03125c-2.402343.757813-4.308593 2.601563-5.144531 4.976563zm43.199219-.121094c2.472656-.78125 4.414062-2.710938 5.210938-5.179688.792968-2.46875.34375-5.167968-1.210938-7.246094l-13.984375-18.695312c55.226563-15.410156 114.503906-2.347656 158.136719 34.847656 2.832031 2.425782 6.960937 2.570313 9.957031.355469 2.996094-2.21875 4.066406-6.207031 2.578125-9.625-22.660156-51.742187-16.929688-111.527344 15.152344-158.015625l14.054687 19.199219c1.507813 2.058593 3.90625 3.273437 6.457031 3.273437 2.550782 0 4.949219-1.214844 6.457032-3.273437l14.054687-19.199219c32.074219 46.464844 37.824219 106.21875 15.199219 157.949219-1.480469 3.414062-.410156 7.402343 2.582031 9.613281 2.992188 2.214844 7.113281 2.074219 9.945313-.339844 43.628906-37.175781 102.890625-50.222656 158.097656-34.808594l-14.023438 18.695313c-1.554687 2.078125-2.003906 4.777344-1.210937 7.246094s2.738281 4.398437 5.210937 5.179687l22.671876 7.09375c-35.980469 44.371094-91.699219 67.898438-148.59375 62.746094-3.722657-.324219-7.175782 1.972656-8.3125 5.535156-1.136719 3.558594.339843 7.433594 3.5625 9.328125 48.988281 28.355469 80.09375 79.773438 82.464843 136.328125l-22.839843-7.390625c-2.445313-.792969-5.117188-.363281-7.191407 1.152344-2.070312 1.515625-3.289062 3.933594-3.273437 6.503906l.121094 23.367188c-53.449219-18.800781-93.761719-63.347657-107.144532-118.402344-.855468-3.605469-4.078125-6.152344-7.785156-6.152344s-6.929688 2.546875-7.785156 6.152344c-13.375 55.058594-53.691406 99.613281-107.144532 118.402344l.121094-23.359375c.011719-2.132813-.824218-4.179688-2.324218-5.6875-1.503907-1.511719-3.546876-2.363282-5.675782-2.363282-.835937-.003906-1.667968.128907-2.464844.394532l-22.839843 7.390625c2.390625-56.554688 33.511719-107.964844 82.511719-136.304688 3.195312-1.914062 4.644531-5.78125 3.5-9.324219-1.148438-3.542968-4.585938-5.828124-8.296876-5.507812-56.90625 5.175781-112.644531-18.375-148.601562-62.78125zm0 0"/></svg>